<mxfile host="app.diagrams.net" modified="2023-08-10T18:29:09.329Z" agent="Mozilla/5.0 (Windows NT 10.0; Win64; x64) AppleWebKit/537.36 (KHTML, like Gecko) Chrome/114.0.0.0 Safari/537.36" version="21.6.8" etag="xG4DgOoV8VrO0iWzUQJL" type="github">
  <diagram name="PÃ¡gina-1" id="RLGEIgDNlUEdeMWP4EKQ">
    <mxGraphModel>
      <root>
        <mxCell id="0" />
        <mxCell id="1" parent="0" />
      </root>
    </mxGraphModel>
  </diagram>
</mxfile>
